<svg xmlns="http://www.w3.org/2000/svg" xml:space="preserve" width="591.823" height="190.55" viewBox="0 0 156.587 50.416"><path d="M26.445 23.762V.545h7.537q2.418 0 4.199.923 1.812.922 2.798 2.607 1.018 1.654 1.018 3.912v8.301q0 2.226-1.018 3.912-.986 1.685-2.798 2.64-1.781.922-4.199.922zm4.77-4.294h2.767q1.432 0 2.322-.89.922-.89.922-2.29v-8.3q0-1.4-.922-2.259-.89-.89-2.322-.89h-2.766zm14.408 4.294V.545h7.441q2.48 0 4.293.859 1.813.859 2.799 2.449 1.018 1.59 1.018 3.753 0 2.258-1.114 4.039-1.08 1.78-2.957 2.576l4.389 9.54h-5.184l-3.753-8.777h-2.226v8.778zM50.33 10.85h2.734q1.59 0 2.449-.795.89-.796.89-2.227 0-1.495-.89-2.321-.86-.827-2.45-.827h-2.734zm14.82 12.912V.545h14.312V4.68h-9.637v5.215h8.524v3.944h-8.524v5.788h9.637v4.135zm26.143.318q-2.45 0-4.294-.859-1.813-.858-2.83-2.417-.986-1.59-.986-3.72h4.643q0 1.303.922 2.098.955.763 2.545.763 1.558 0 2.417-.731.89-.763.89-2.004 0-.986-.572-1.749-.573-.795-1.686-1.05l-2.83-.667q-2.735-.636-4.357-2.45-1.59-1.844-1.59-4.388 0-3.117 2.003-4.898 2.036-1.78 5.534-1.78 3.498 0 5.566 1.812 2.067 1.781 2.067 4.834h-4.644q0-1.208-.795-1.876-.795-.7-2.194-.7-1.368 0-2.13.668-.764.668-.764 1.78 0 1.814 2.194 2.323l2.926.667q2.735.605 4.325 2.64 1.622 2.004 1.622 4.834 0 2.068-.985 3.626-.955 1.558-2.767 2.417-1.781.827-4.23.827zm11.481-.318V.545h7.537q2.417 0 4.198.923 1.813.922 2.8 2.607 1.017 1.654 1.017 3.912v8.301q0 2.226-1.018 3.912-.986 1.685-2.799 2.64-1.78.922-4.198.922zm4.77-4.294h2.767q1.432 0 2.322-.89.922-.89.922-2.29v-8.3q0-1.4-.922-2.259-.89-.89-2.322-.89h-2.767zm14.853 4.294V.545h14.311V4.68h-9.636v5.215h8.523v3.944h-8.523v5.788h9.636v4.135zm18.446 0V.545h5.566l6.01 17.97q-.095-1.177-.222-2.704-.127-1.558-.223-3.085-.063-1.558-.063-2.64V.546h4.198v23.216h-5.566l-5.947-17.97q.095 1.019.19 2.418.096 1.4.16 2.83.095 1.432.095 2.545v10.177zM26.827 49.617v-4.293l8.523-14.63h-8.269V26.4h13.707v4.294l-8.555 14.63h8.905v4.293zm26.237.318q-3.498 0-5.565-1.972t-2.067-5.343v-9.223q0-3.403 2.067-5.343 2.067-1.972 5.566-1.972 3.498 0 5.565 1.972 2.068 1.94 2.068 5.343v9.223q0 3.371-2.068 5.343-2.067 1.972-5.565 1.972zm0-4.134q2.863 0 2.863-2.863v-9.859q0-2.862-2.862-2.862-2.863 0-2.863 2.862v9.86q0 2.862 2.863 2.862zm11.45 3.816V26.4h5.566l6.01 17.97q-.095-1.177-.222-2.704-.127-1.558-.223-3.085-.063-1.558-.063-2.64v-9.54h4.198v23.216h-5.566l-5.947-17.969q.095 1.018.19 2.417.096 1.4.16 2.83.095 1.432.095 2.545v10.177zm19.718 0V26.4h14.312v4.135h-9.637v5.216h8.524v3.943h-8.524v5.789h9.637v4.134ZM16.697 7.511c-1.631 0-3.305.335-3.806-.334-1.34-1.674 1.17-3.808 2.886-2.886-2.134 1.003-1.716 3.26.627 2.341.78-.31 1.912.297 1.759 1.256-.461-.21-.923-.377-1.466-.377z"/><path d="m11.672 2.698 2.573-.568C14.977.596 17.22.66 18.935.28c0 0 .671-.064 1.04-.145L20.588 0l-.229.909c5.12 2.423 4.39 10.553-.412 15-.657-.455-.777-.215-1.353-.301l-.631 1.21c.977 1.712 2.355 6.591 2.47 10.979.092 1.393 1.854 1.217 1.797-1.168-.034-1.321-.896-2.501-1.48-3.4-.819-1.19-2.67-5.88 2.588-9.227l.09 13.39c-.198 2.4-1.802 3.097-3.212 2.338-.174 1.153-.411 2.79-.467 3.703-.097 1.692 1.744 2.271 3.077-.424 1.597 3.547-.636 8.366-2.665 11.986 2.183.373 1.206 1.575 1.749 2.483-1.097.07-2.307 1.58-3.128.392-.173 1.923-1.81 1.3-2.607 2.546.357-1.49-1.094-1.855-.01-3.34-2.303-.346-.985-1.753-1.625-2.896.857.198 2.053-1.182 3.167-.014.774-1.928 1.054-4.732.057-6.138-.863 1.132-1.585 2.32-2.843 2.255-1.266-.106-2.562-1.32-2.541-3.165 2.072-1.872 3.776-4.049 3.52-7.72-1.452 1.179-2.386 1.213-3.925.653-.093 1.521.115 2.073 1.328 1.936-1.534 3.338-2.632 3.794-5.454 6.345.674 2.079-.564 2.482-.343 3.676-.668-.881-2.607.233-2.168-1.662-1.907 1.449-1.57-.126-3 .962.627-1.039-.56-2.534 1.438-3.574-.61-1.793.262-1.728.694-3.453.12 1.131 1.669-.198 2.33 1.627.8-1.42 1.243-4.26.287-4.905-.426-.376-1.488-.142-1.814-1.227-.665-1.652.204-4.114 2.133-4.498.613-.135 1.556 1.027 2.073 1.426.68.364 2.722 1.071 3.78-.535.669-1.432.139-2.857-1.116-3.309-1.016-.334-2.128-1.286-2.527-1.54-1.182 1.631-1.999 1.812-3.55.997.016 2.397-1.09 2.428-1.533 3.725-.575-1.245-2.046-.534-1.658-2.462-1.67.97-1.904-.479-2.875-.605.972-.645.501-1.997 2.288-2.436-.546-1.893.775-1.927 1.112-3.5.04 1.147 1.767.037 2.07 2.197.927-.462 2.005-1.6 2.44-1.953-.092-2.164.211-2.146.453-3.185-1.056-.709-2.001.442-2.67 1.49C3.59 14.21 4.65 11.062 4.082 9.26c-1.663 1.395-1.885.587-3.188 1.476.543-1.62-1.009-2.434.888-3.538-1.214-1.232-.01-2.182-.616-2.992.997.25 2.127-1.028 3.242.525 1.195-1.763 1.775-.69 3.178-1.13-1.027.784.366 1.847-1.211 3.052.22 1.195 2.488 3.306 4.15 4.824 1.445-.834 2.29-1.277 3.815-1.358.68-.406.817-.18.795-1.246-1.521.68-2.624.924-2.876-1.378.663.283 1.043.456 2.01-.015.813-.78-1.454-2.12-2.275-.996-.05-.032-.2-.129-.308-.233-.116-1.302-.17-2.32-.014-3.554zm3.548.545c.617-.308.827-.525 1.136-1.065-.794.09-1.23.444-1.136 1.065zM101.663 30.329h24.323l2.123 2.534-3.914 4.297-.898-1.072h-21.634zm33.73 11.231h3.417a5.955 5.955 0 0 1 5.206-3.071 5.958 5.958 0 0 1 5.95 5.95 5.958 5.958 0 0 1-5.95 5.952 5.955 5.955 0 0 1-5.206-3.072h-6.106l-2.289-2.733 3.914-4.296Zm8.623 4.991a2.114 2.114 0 0 0 2.111-2.111c0-1.165-.947-2.112-2.111-2.112s-2.112.947-2.112 2.112c0 1.164.947 2.111 2.112 2.111z"/><path d="m122.788 41.535 11.41-12.526h11.246a5.954 5.954 0 0 1 5.192-3.048 5.958 5.958 0 0 1 5.951 5.951 5.958 5.958 0 0 1-5.951 5.952 5.956 5.956 0 0 1-5.22-3.096h-8.673l-11.413 12.53h-23.667v-5.763Zm27.848-7.511a2.114 2.114 0 0 0 2.111-2.112c0-1.164-.947-2.111-2.111-2.111s-2.112.947-2.112 2.111c0 1.165.947 2.112 2.112 2.112z"/></svg>
